<?xml version="1.0" encoding="UTF-8"?>
<svg width="90px" height="90px" viewBox="0 0 90 90" version="1.1" xmlns="http://www.w3.org/2000/svg" xmlns:xlink="http://www.w3.org/1999/xlink">
    <!-- Generator: Sketch 46.2 (44496) - http://www.bohemiancoding.com/sketch -->
    <title>Group 21</title>
    <desc>Created with Sketch.</desc>
    <defs>
        <circle id="path-1" cx="128" cy="68" r="45"></circle>
    </defs>
    <g id="Components" stroke="none" stroke-width="1" fill="none" fill-rule="evenodd">
        <g id="Logo-Exploration" transform="translate(-600.000000, -1789.000000)">
            <g id="Group-21" transform="translate(517.000000, 1766.000000)">
                <path d="M103.233649,89.24851 C102.430322,88.34883 101.674651,87.19869 100.966634,85.79808 C99.904609,83.69717 99.072571,82.59256 102.121009,81.88448 C105.169446,81.1764 106.052987,78.87764 110.043572,79.0051 C114.034157,79.13255 114.842219,80.79737 117.323681,83.29773 C119.805143,85.79808 125.17121,83.22775 123.770421,88.13641 C122.369631,93.04507 121.736294,95.70161 116.868147,94.83901 C112,93.9764 113.43033,88.13641 111.21615,88.13641 C109.001971,88.13641 108.21522,90.82295 106.401963,90.64676 C105.193126,90.5293 104.137021,90.06322 103.233649,89.24851 Z M101.637855,89.17011 C100.734112,88.10174 99.883982,86.73594 99.087463,85.07272 C97.892685,82.57788 96.956643,81.26617 100.386135,80.42532 C103.815627,79.58448 104.80961,76.8547 109.299018,77.00605 C113.788427,77.1574 114.697497,79.13438 117.489141,82.10355 C120.280786,85.07272 126.317611,82.02045 124.741723,87.84948 C123.165835,93.67852 122.453331,96.83317 116.976666,95.80882 C111.5,94.78447 113.109121,87.84948 110.618169,87.84948 C108.127217,87.84948 107.242122,91.03975 105.202209,90.83053 C103.842267,90.69104 102.654148,90.13757 101.637855,89.17011 Z M100.042061,89.45117 C99.037903,88.27034 98.093313,86.76078 97.208292,84.92248 C95.880761,82.16503 94.840714,80.71524 98.651261,79.78588 C102.461808,78.85653 103.566234,75.83941 108.554465,76.00669 C113.542696,76.17397 114.552774,78.35905 117.654602,81.64076 C120.756429,84.92248 127.464013,81.54892 125.713026,87.99154 C123.962039,94.43415 123.170368,97.92087 117.085184,96.7887 C111,95.65652 112.787913,87.99154 110.020188,87.99154 C107.252463,87.99154 106.269025,91.51762 104.002454,91.28637 C102.491407,91.13221 101.171276,90.52047 100.042061,89.45117 Z M98.715737,90.37276 C97.54422,89.02325 96.442199,87.29803 95.409675,85.19712 C93.860888,82.04575 92.6475,80.38884 97.093138,79.32672 C101.538776,78.2646 102.827273,74.81646 108.646876,75.00765 C114.466479,75.19883 115.644903,77.69606 119.263702,81.44659 C122.8825,85.19712 130.708015,81.34163 128.665197,88.70461 C126.622379,96.0676 125.698762,100.05242 118.599381,98.75851 C111.5,97.4646 113.585898,88.70461 110.356886,88.70461 C107.127874,88.70461 105.980529,92.73442 103.336197,92.47014 C101.573308,92.29395 100.033155,91.59483 98.715737,90.37276 Z M97.254679,90.93489 C95.949273,89.36046 94.721307,87.34771 93.57078,84.89664 C91.84499,81.22004 90.492928,79.28698 95.446639,78.04784 C100.40035,76.8087 101.836104,72.78587 108.320804,73.00892 C114.805505,73.23196 116.118606,76.1454 120.150982,80.52102 C124.183358,84.89664 132.903216,80.39856 130.626933,88.98871 C128.350651,97.57887 127.321478,102.22782 119.410739,100.71826 C111.5,99.2087 113.824286,88.98871 110.226244,88.98871 C106.628202,88.98871 105.349732,93.69015 102.403191,93.38183 C100.438829,93.17628 98.722659,92.36063 97.254679,90.93489 Z M95.063091,91.49702 C93.556854,89.69766 92.13997,87.39738 90.812439,84.59616 C88.821142,80.39433 87.261071,78.18512 92.976891,76.76896 C98.692712,75.3528 100.349351,70.75529 107.831697,71.01019 C115.314044,71.2651 116.829161,74.59474 121.481902,79.59545 C126.134643,84.59616 136.196019,79.4555 133.569539,89.27282 C130.943058,99.09013 129.755552,104.40323 120.627776,102.67801 C111.5,100.9528 114.181869,89.27282 110.030282,89.27282 C105.878695,89.27282 104.403537,94.64589 101.003681,94.29352 C98.737111,94.0586 96.756914,93.12644 95.063091,91.49702 Z M92.871503,92.05915 C91.164434,90.03487 89.558632,87.44705 88.054097,84.29568 C85.797294,79.56862 84.029214,77.08326 90.507144,75.49008 C96.985073,73.8969 98.862597,68.7247 107.34259,69.01147 C115.822584,69.29824 117.539716,73.04409 122.812823,78.66988 C128.085929,84.29568 139.488821,78.51244 136.512144,89.55692 C133.535466,100.6014 132.189625,106.57863 121.844813,104.63776 C111.5,102.6969 114.539452,89.55692 109.83432,89.55692 C105.129188,89.55692 103.457342,95.60163 99.604172,95.20521 C97.035392,94.94093 94.791169,93.89224 92.871503,92.05915 Z M90.814651,93.26181 C88.873278,90.95638 87.047072,88.00914 85.336032,84.42008 C82.769472,79.03649 80.758714,76.20594 88.125771,74.39148 C95.492829,72.57703 97.628052,66.68646 107.271966,67.01306 C116.915879,67.33966 118.868697,71.60576 124.865563,78.01292 C130.862429,84.42008 143.830424,77.83361 140.445183,90.41205 C137.059942,102.99048 135.529378,109.79789 123.764689,107.58745 C112,105.37702 115.456631,90.41205 110.105697,90.41205 C104.754763,90.41205 102.853448,97.2963 98.471412,96.84482 C95.550054,96.54383 92.9978,95.3495 90.814651,93.26181 Z M87.757798,93.46447 C85.582122,90.87789 83.535512,87.57123 81.617967,83.54448 C78.74165,77.50435 76.488214,74.32861 84.744399,72.29289 C93.000584,70.25716 95.393507,63.64822 106.201341,64.01465 C117.009175,64.38108 119.197677,69.16744 125.918303,76.35596 C132.638929,83.54448 147.172027,76.15478 143.378222,90.26717 C139.584418,104.37956 137.86913,112.01714 124.684565,109.53714 C111.5,107.05715 115.373811,90.26717 109.377074,90.26717 C103.380337,90.26717 101.249554,97.99097 96.338651,97.48443 C93.064716,97.14674 90.204431,95.80675 87.757798,93.46447 Z M84.970416,94.94819 C82.493493,91.96801 80.163506,88.15816 77.980455,83.51864 C74.705878,76.55936 72.140428,72.90036 81.539777,70.55485 C90.939126,68.20933 93.663377,60.59469 105.96768,61.01688 C118.271984,61.43908 120.76351,66.95379 128.414684,75.23622 C136.065858,83.51864 152.611231,75.00442 148.29213,91.26435 C143.973029,107.52428 142.020241,116.3241 127.01012,113.46671 C112,110.60932 116.410185,91.26435 109.58313,91.26435 C102.756076,91.26435 100.330261,100.16351 94.739387,99.57989 C91.012138,99.19081 87.755814,97.64691 84.970416,94.94819 Z M80.452505,96.43191 C77.607391,93.05812 74.931054,88.74508 72.423495,83.4928 C68.662157,75.61437 65.715357,71.47211 76.511906,68.81681 C87.308456,66.16151 90.437662,57.54116 104.570984,58.01911 C118.704306,58.49707 121.566193,64.74014 130.354704,74.11647 C139.143215,83.4928 158.148036,73.85406 153.186906,92.26153 C148.225777,110.669 145.982709,120.63105 128.741354,117.39627 C111.5,114.1615 116.565753,92.26153 108.723866,92.26153 C100.88198,92.26153 98.09557,102.33605 91.67362,101.67534 C87.39232,101.23488 83.651949,99.48707 80.452505,96.43191 Z M76.934594,97.55617 C73.721288,93.73254 70.698602,88.84443 67.866536,82.89184 C63.618436,73.96295 60.290285,69.26839 72.484035,66.25905 C84.677785,63.24971 88.211948,53.47998 104.174288,54.02166 C120.136628,54.56334 123.368877,61.63883 133.294725,72.26533 C143.220572,82.89184 164.68484,71.96794 159.081682,92.82973 C153.478525,113.69153 150.945177,124.98186 131.472589,121.31578 C112,117.64969 117.72132,92.82973 108.864602,92.82973 C100.007883,92.82973 96.860879,104.24752 89.607854,103.49872 C84.772503,102.99953 80.548083,101.01868 76.934594,97.55617 Z M71.686154,98.96148 C68.037713,94.57556 64.605704,88.96861 61.390129,82.14064 C56.566766,71.89868 52.787928,66.51374 66.632915,63.06185 C80.477902,59.60996 84.490649,48.40351 102.614556,49.02485 C120.738463,49.64619 124.408413,57.76219 135.678385,69.95141 C146.948358,82.14064 171.319246,69.61028 164.957327,93.53999 C158.595408,117.4697 155.719003,130.42037 133.609502,126.21516 C111.5,122.00994 117.996083,93.53999 107.940016,93.53999 C97.88395,93.53999 94.31079,106.63686 86.075584,105.77795 C80.585446,105.20534 75.78897,102.93319 71.686154,98.96148 Z M66.841919,100.3668 C62.657927,95.41858 58.722138,89.09279 55.034552,81.38944 C49.503173,69.83441 45.169642,63.75909 61.046921,59.86465 C76.924199,55.97021 81.525974,43.32703 102.310271,44.02803 C123.094567,44.72903 127.303226,53.88554 140.227506,67.63749 C153.151787,81.38944 181.100052,67.25263 173.804274,94.25024 C166.508496,121.24786 163.209866,135.85888 137.854933,131.11453 C112.5,126.37019 119.949636,94.25024 108.41745,94.25024 C96.885264,94.25024 92.787603,109.0262 83.343559,108.05717 C77.04753,107.41115 71.546983,104.8477 66.841919,100.3668 Z M45.65657,106.26914 C39.531206,98.95926 33.76921,89.61434 28.370584,78.23439 C20.272645,61.16447 13.928356,52.18956 37.172692,46.43641 C60.417028,40.68327 67.154026,22.00585 97.582236,23.04141 C128.010447,24.07698 134.171922,37.60364 153.093069,57.91902 C172.014216,78.23439 212.930477,57.35047 202.249457,97.23332 C191.568438,137.11616 186.739244,158.70061 149.619622,151.69193 C112.5,144.68324 123.406267,97.23332 106.523147,97.23332 C89.640027,97.23332 83.641051,119.06143 69.814971,117.62991 C60.597584,116.67557 52.544784,112.88864 45.65657,106.26914 Z M53.692392,104.02063 C48.30341,97.61043 43.234114,89.41566 38.484503,79.43632 C31.360086,64.4673 25.778499,56.597 46.228434,51.55193 C66.678369,46.50687 72.605455,30.1282 99.375629,31.03632 C126.145803,31.94443 131.566555,43.80627 148.213028,61.62129 C164.859502,79.43632 200.856867,61.12272 191.459905,96.09691 C182.062942,131.07109 177.814307,149.999 145.157154,143.85292 C112.5,137.70684 122.095131,96.09691 107.241676,96.09691 C92.38822,96.09691 87.110433,115.23849 74.946505,113.98315 C66.837219,113.14627 59.752515,109.82543 53.692392,104.02063 Z M59.997685,102.05319 C55.278142,96.4302 50.838572,89.2418 46.678975,80.488 C40.439579,67.35728 35.551356,60.45351 53.460927,56.02801 C71.370497,51.60251 76.561299,37.23527 100.005985,38.03186 C123.450672,38.82844 128.198039,49.23357 142.776627,64.86078 C157.355216,80.488 188.880859,64.42344 180.651221,95.10255 C172.421583,125.78166 168.700729,142.38509 140.100364,136.99379 C111.5,131.60249 119.903189,95.10255 106.894884,95.10255 C93.886578,95.10255 89.264417,111.89341 78.611535,110.79224 C71.509614,110.05813 65.304997,107.14511 59.997685,102.05319 Z" id="Combined-Shape" stroke="#BFC0C0" stroke-width="0.75"></path>
                <mask id="mask-2" fill="white">
                    <use xlink:href="#path-1"></use>
                </mask>
                <circle stroke="#FFFFFF" stroke-width="3" cx="128" cy="68" r="43.5"></circle>
                <path d="M127.822556,51.9288477 L110.835476,85.9030075 L144.809636,85.9030075 L127.822556,51.9288477 Z" id="Triangle-3-Copy-2" stroke="#FFFFFF" stroke-width="2.2" mask="url(#mask-2)"></path>
                <path d="M135.329323,79.4962406 L142.83609,79.4962406 L127.822556,49.4691729 L112.809023,79.4962406 L120.315789,79.4962406 L127.822556,64.4827068 L135.329323,79.4962406 Z" id="Combined-Shape" fill="#FFFFFF" mask="url(#mask-2)"></path>
            </g>
        </g>
    </g>
</svg>