<?xml version="1.0" encoding="UTF-8"?>
<svg width="185px" height="132px" viewBox="0 0 185 132" version="1.1" xmlns="http://www.w3.org/2000/svg" xmlns:xlink="http://www.w3.org/1999/xlink">
    <!-- Generator: Sketch 46.2 (44496) - http://www.bohemiancoding.com/sketch -->
    <title>Path 40</title>
    <desc>Created with Sketch.</desc>
    <defs></defs>
    <g id="Components" stroke="none" stroke-width="1" fill="none" fill-rule="evenodd" stroke-linecap="square">
        <g id="Logo-Exploration" transform="translate(-537.000000, -1777.000000)" stroke="#BFC0C0" stroke-width="0.75">
            <path d="M620.233649,1844.24851 C619.430322,1843.34883 618.674651,1842.19869 617.966634,1840.79808 C616.904609,1838.69717 616.072571,1837.59256 619.121009,1836.88448 C622.169446,1836.1764 623.052987,1833.87764 627.043572,1834.0051 C631.034157,1834.13255 631.842219,1835.79737 634.323681,1838.29773 C636.805143,1840.79808 642.17121,1838.22775 640.770421,1843.13641 C639.369631,1848.04507 638.736294,1850.70161 633.868147,1849.83901 C629,1848.9764 630.43033,1843.13641 628.21615,1843.13641 C626.001971,1843.13641 625.21522,1845.82295 623.401963,1845.64676 C622.193126,1845.5293 621.137021,1845.06322 620.233649,1844.24851 Z M618.637855,1844.17011 C617.734112,1843.10174 616.883982,1841.73594 616.087463,1840.07272 C614.892685,1837.57788 613.956643,1836.26617 617.386135,1835.42532 C620.815627,1834.58448 621.80961,1831.8547 626.299018,1832.00605 C630.788427,1832.1574 631.697497,1834.13438 634.489141,1837.10355 C637.280786,1840.07272 643.317611,1837.02045 641.741723,1842.84948 C640.165835,1848.67852 639.453331,1851.83317 633.976666,1850.80882 C628.5,1849.78447 630.109121,1842.84948 627.618169,1842.84948 C625.127217,1842.84948 624.242122,1846.03975 622.202209,1845.83053 C620.842267,1845.69104 619.654148,1845.13757 618.637855,1844.17011 Z M617.042061,1844.45117 C616.037903,1843.27034 615.093313,1841.76078 614.208292,1839.92248 C612.880761,1837.16503 611.840714,1835.71524 615.651261,1834.78588 C619.461808,1833.85653 620.566234,1830.83941 625.554465,1831.00669 C630.542696,1831.17397 631.552774,1833.35905 634.654602,1836.64076 C637.756429,1839.92248 644.464013,1836.54892 642.713026,1842.99154 C640.962039,1849.43415 640.170368,1852.92087 634.085184,1851.7887 C628,1850.65652 629.787913,1842.99154 627.020188,1842.99154 C624.252463,1842.99154 623.269025,1846.51762 621.002454,1846.28637 C619.491407,1846.13221 618.171276,1845.52047 617.042061,1844.45117 Z M615.715737,1845.37276 C614.54422,1844.02325 613.442199,1842.29803 612.409675,1840.19712 C610.860888,1837.04575 609.6475,1835.38884 614.093138,1834.32672 C618.538776,1833.2646 619.827273,1829.81646 625.646876,1830.00765 C631.466479,1830.19883 632.644903,1832.69606 636.263702,1836.44659 C639.8825,1840.19712 647.708015,1836.34163 645.665197,1843.70461 C643.622379,1851.0676 642.698762,1855.05242 635.599381,1853.75851 C628.5,1852.4646 630.585898,1843.70461 627.356886,1843.70461 C624.127874,1843.70461 622.980529,1847.73442 620.336197,1847.47014 C618.573308,1847.29395 617.033155,1846.59483 615.715737,1845.37276 Z M614.254679,1845.93489 C612.949273,1844.36046 611.721307,1842.34771 610.57078,1839.89664 C608.84499,1836.22004 607.492928,1834.28698 612.446639,1833.04784 C617.40035,1831.8087 618.836104,1827.78587 625.320804,1828.00892 C631.805505,1828.23196 633.118606,1831.1454 637.150982,1835.52102 C641.183358,1839.89664 649.903216,1835.39856 647.626933,1843.98871 C645.350651,1852.57887 644.321478,1857.22782 636.410739,1855.71826 C628.5,1854.2087 630.824286,1843.98871 627.226244,1843.98871 C623.628202,1843.98871 622.349732,1848.69015 619.403191,1848.38183 C617.438829,1848.17628 615.722659,1847.36063 614.254679,1845.93489 Z M612.063091,1846.49702 C610.556854,1844.69766 609.13997,1842.39738 607.812439,1839.59616 C605.821142,1835.39433 604.261071,1833.18512 609.976891,1831.76896 C615.692712,1830.3528 617.349351,1825.75529 624.831697,1826.01019 C632.314044,1826.2651 633.829161,1829.59474 638.481902,1834.59545 C643.134643,1839.59616 653.196019,1834.4555 650.569539,1844.27282 C647.943058,1854.09013 646.755552,1859.40323 637.627776,1857.67801 C628.5,1855.9528 631.181869,1844.27282 627.030282,1844.27282 C622.878695,1844.27282 621.403537,1849.64589 618.003681,1849.29352 C615.737111,1849.0586 613.756914,1848.12644 612.063091,1846.49702 Z M609.871503,1847.05915 C608.164434,1845.03487 606.558632,1842.44705 605.054097,1839.29568 C602.797294,1834.56862 601.029214,1832.08326 607.507144,1830.49008 C613.985073,1828.8969 615.862597,1823.7247 624.34259,1824.01147 C632.822584,1824.29824 634.539716,1828.04409 639.812823,1833.66988 C645.085929,1839.29568 656.488821,1833.51244 653.512144,1844.55692 C650.535466,1855.6014 649.189625,1861.57863 638.844813,1859.63776 C628.5,1857.6969 631.539452,1844.55692 626.83432,1844.55692 C622.129188,1844.55692 620.457342,1850.60163 616.604172,1850.20521 C614.035392,1849.94093 611.791169,1848.89224 609.871503,1847.05915 Z M607.814651,1848.26181 C605.873278,1845.95638 604.047072,1843.00914 602.336032,1839.42008 C599.769472,1834.03649 597.758714,1831.20594 605.125771,1829.39148 C612.492829,1827.57703 614.628052,1821.68646 624.271966,1822.01306 C633.915879,1822.33966 635.868697,1826.60576 641.865563,1833.01292 C647.862429,1839.42008 660.830424,1832.83361 657.445183,1845.41205 C654.059942,1857.99048 652.529378,1864.79789 640.764689,1862.58745 C629,1860.37702 632.456631,1845.41205 627.105697,1845.41205 C621.754763,1845.41205 619.853448,1852.2963 615.471412,1851.84482 C612.550054,1851.54383 609.9978,1850.3495 607.814651,1848.26181 Z M604.757798,1848.46447 C602.582122,1845.87789 600.535512,1842.57123 598.617967,1838.54448 C595.74165,1832.50435 593.488214,1829.32861 601.744399,1827.29289 C610.000584,1825.25716 612.393507,1818.64822 623.201341,1819.01465 C634.009175,1819.38108 636.197677,1824.16744 642.918303,1831.35596 C649.638929,1838.54448 664.172027,1831.15478 660.378222,1845.26717 C656.584418,1859.37956 654.86913,1867.01714 641.684565,1864.53714 C628.5,1862.05715 632.373811,1845.26717 626.377074,1845.26717 C620.380337,1845.26717 618.249554,1852.99097 613.338651,1852.48443 C610.064716,1852.14674 607.204431,1850.80675 604.757798,1848.46447 Z M601.970416,1849.94819 C599.493493,1846.96801 597.163506,1843.15816 594.980455,1838.51864 C591.705878,1831.55936 589.140428,1827.90036 598.539777,1825.55485 C607.939126,1823.20933 610.663377,1815.59469 622.96768,1816.01688 C635.271984,1816.43908 637.76351,1821.95379 645.414684,1830.23622 C653.065858,1838.51864 669.611231,1830.00442 665.29213,1846.26435 C660.973029,1862.52428 659.020241,1871.3241 644.01012,1868.46671 C629,1865.60932 633.410185,1846.26435 626.58313,1846.26435 C619.756076,1846.26435 617.330261,1855.16351 611.739387,1854.57989 C608.012138,1854.19081 604.755814,1852.64691 601.970416,1849.94819 Z M597.452505,1851.43191 C594.607391,1848.05812 591.931054,1843.74508 589.423495,1838.4928 C585.662157,1830.61437 582.715357,1826.47211 593.511906,1823.81681 C604.308456,1821.16151 607.437662,1812.54116 621.570984,1813.01911 C635.704306,1813.49707 638.566193,1819.74014 647.354704,1829.11647 C656.143215,1838.4928 675.148036,1828.85406 670.186906,1847.26153 C665.225777,1865.669 662.982709,1875.63105 645.741354,1872.39627 C628.5,1869.1615 633.565753,1847.26153 625.723866,1847.26153 C617.88198,1847.26153 615.09557,1857.33605 608.67362,1856.67534 C604.39232,1856.23488 600.651949,1854.48707 597.452505,1851.43191 Z M593.934594,1852.55617 C590.721288,1848.73254 587.698602,1843.84443 584.866536,1837.89184 C580.618436,1828.96295 577.290285,1824.26839 589.484035,1821.25905 C601.677785,1818.24971 605.211948,1808.47998 621.174288,1809.02166 C637.136628,1809.56334 640.368877,1816.63883 650.294725,1827.26533 C660.220572,1837.89184 681.68484,1826.96794 676.081682,1847.82973 C670.478525,1868.69153 667.945177,1879.98186 648.472589,1876.31578 C629,1872.64969 634.72132,1847.82973 625.864602,1847.82973 C617.007883,1847.82973 613.860879,1859.24752 606.607854,1858.49872 C601.772503,1857.99953 597.548083,1856.01868 593.934594,1852.55617 Z M588.686154,1853.96148 C585.037713,1849.57556 581.605704,1843.96861 578.390129,1837.14064 C573.566766,1826.89868 569.787928,1821.51374 583.632915,1818.06185 C597.477902,1814.60996 601.490649,1803.40351 619.614556,1804.02485 C637.738463,1804.64619 641.408413,1812.76219 652.678385,1824.95141 C663.948358,1837.14064 688.319246,1824.61028 681.957327,1848.53999 C675.595408,1872.4697 672.719003,1885.42037 650.609502,1881.21516 C628.5,1877.00994 634.996083,1848.53999 624.940016,1848.53999 C614.88395,1848.53999 611.31079,1861.63686 603.075584,1860.77795 C597.585446,1860.20534 592.78897,1857.93319 588.686154,1853.96148 Z M583.841919,1855.3668 C579.657927,1850.41858 575.722138,1844.09279 572.034552,1836.38944 C566.503173,1824.83441 562.169642,1818.75909 578.046921,1814.86465 C593.924199,1810.97021 598.525974,1798.32703 619.310271,1799.02803 C640.094567,1799.72903 644.303226,1808.88554 657.227506,1822.63749 C670.151787,1836.38944 698.100052,1822.25263 690.804274,1849.25024 C683.508496,1876.24786 680.209866,1890.85888 654.854933,1886.11453 C629.5,1881.37019 636.949636,1849.25024 625.41745,1849.25024 C613.885264,1849.25024 609.787603,1864.0262 600.343559,1863.05717 C594.04753,1862.41115 588.546983,1859.8477 583.841919,1855.3668 Z M562.65657,1861.26914 C556.531206,1853.95926 550.76921,1844.61434 545.370584,1833.23439 C537.272645,1816.16447 530.928356,1807.18956 554.172692,1801.43641 C577.417028,1795.68327 584.154026,1777.00585 614.582236,1778.04141 C645.010447,1779.07698 651.171922,1792.60364 670.093069,1812.91902 C689.014216,1833.23439 729.930477,1812.35047 719.249457,1852.23332 C708.568438,1892.11616 703.739244,1913.70061 666.619622,1906.69193 C629.5,1899.68324 640.406267,1852.23332 623.523147,1852.23332 C606.640027,1852.23332 600.641051,1874.06143 586.814971,1872.62991 C577.597584,1871.67557 569.544784,1867.88864 562.65657,1861.26914 Z M570.692392,1859.02063 C565.30341,1852.61043 560.234114,1844.41566 555.484503,1834.43632 C548.360086,1819.4673 542.778499,1811.597 563.228434,1806.55193 C583.678369,1801.50687 589.605455,1785.1282 616.375629,1786.03632 C643.145803,1786.94443 648.566555,1798.80627 665.213028,1816.62129 C681.859502,1834.43632 717.856867,1816.12272 708.459905,1851.09691 C699.062942,1886.07109 694.814307,1904.999 662.157154,1898.85292 C629.5,1892.70684 639.095131,1851.09691 624.241676,1851.09691 C609.38822,1851.09691 604.110433,1870.23849 591.946505,1868.98315 C583.837219,1868.14627 576.752515,1864.82543 570.692392,1859.02063 Z M576.997685,1857.05319 C572.278142,1851.4302 567.838572,1844.2418 563.678975,1835.488 C557.439579,1822.35728 552.551356,1815.45351 570.460927,1811.02801 C588.370497,1806.60251 593.561299,1792.23527 617.005985,1793.03186 C640.450672,1793.82844 645.198039,1804.23357 659.776627,1819.86078 C674.355216,1835.488 705.880859,1819.42344 697.651221,1850.10255 C689.421583,1880.78166 685.700729,1897.38509 657.100364,1891.99379 C628.5,1886.60249 636.903189,1850.10255 623.894884,1850.10255 C610.886578,1850.10255 606.264417,1866.89341 595.611535,1865.79224 C588.509614,1865.05813 582.304997,1862.14511 576.997685,1857.05319 Z" id="Path-40"></path>
        </g>
    </g>
</svg>